<?xml version="1.0" encoding="UTF-8"?>
<svg id="Layer_2" data-name="Layer 2" xmlns="http://www.w3.org/2000/svg" viewBox="0 0 274.18 73.57">
  <defs>
    <style>
      .cls-1 {
        fill: #7f56d7;
      }
    </style>
  </defs>
  <g id="Layer_1-2" data-name="Layer 1">
    <g>
      <g>
        <path class="cls-1" d="M87.52,2.77v2.62c0,.75-.31,1.46-.87,1.96L36.49,53.14c-.37,.32-.9,.32-1.27,0l-12.37-11.28c-.55-.5-.87-1.22-.87-1.96v-2.59l13.23,12.07c.37,.32,.9,.32,1.27,0L87.52,2.77Z"/>
        <path class="cls-1" d="M35.84,56.03c-.84,0-1.67-.3-2.35-.88l-13.29-12.12c-.55-.5-.87-1.22-.87-1.96v-3.75c0-2.31,2.74-3.52,4.45-1.96l10.28,9.38c1.01,.93,2.57,.92,3.58,0L85.73,.82c1.71-1.56,4.45-.35,4.45,1.96v3.78c0,.75-.31,1.46-.87,1.96L38.28,55.1c-.72,.62-1.59,.93-2.44,.93Z"/>
      </g>
      <g>
        <rect class="cls-1" x="2.65" y="21.65" width="2.77" height="48.7" rx=".93" ry=".93"/>
        <path class="cls-1" d="M3.58,18.99h.92c1.97,0,3.58,1.6,3.58,3.58v46.85c0,1.97-1.6,3.58-3.58,3.58h-.92c-1.97,0-3.58-1.6-3.58-3.58V22.57c0-1.97,1.6-3.58,3.58-3.58Z"/>
      </g>
      <g>
        <rect class="cls-1" x="66.47" y="21.65" width="2.77" height="48.7" rx=".93" ry=".93"/>
        <path class="cls-1" d="M67.39,18.99h.92c1.98,0,3.58,1.6,3.58,3.58v46.84c0,1.98-1.6,3.58-3.58,3.58h-.92c-1.98,0-3.58-1.6-3.58-3.58V22.57c0-1.98,1.6-3.58,3.58-3.58Z"/>
      </g>
    </g>
    <path class="cls-1" d="M195.33,28.82v-2.01c-1.8-.19-3.15-.74-4.11-1.68-1.19-1.17-1.79-3.02-1.79-5.49V11h5.13v-1.99h-5.13V0h-2.44V19.68c0,3.09,.78,5.34,2.4,6.88,1.36,1.3,3.36,2.06,5.94,2.26Z"/>
    <g>
      <path class="cls-1" d="M124.99,25.82c.33-.68,.5-1.49,.5-2.4,0-1.11-.22-1.98-.64-2.6-.48-.7-1.07-1.24-1.81-1.66-.81-.46-1.69-.83-2.62-1.08-1.06-.29-2.06-.56-2.98-.82-1.02-.28-1.86-.59-2.56-.94-1.51-.75-1.73-1.95-1.73-2.61,0-.99,.51-1.84,1.45-2.38,.71-.41,1.61-.61,2.77-.61s2.31,.23,3.6,.67c.88,.31,1.78,.76,2.68,1.37l1.23-1.78c-.15-.1-.3-.21-.46-.31-.56-.36-1.19-.68-1.87-.97-.69-.28-1.47-.52-2.33-.72-.83-.19-1.75-.28-2.76-.28-2.22,0-3.95,.47-5.14,1.41-1.1,.86-1.63,2.06-1.63,3.68,0,1.06,.21,1.89,.62,2.46,.48,.66,1.07,1.18,1.81,1.59,.82,.45,1.7,.81,2.64,1.07,1.06,.29,2.06,.56,2.98,.82,1.06,.29,1.92,.64,2.64,1.05,1.07,.61,1.66,1.61,1.66,2.81s-.62,2.23-1.74,2.8c-1.76,.9-4.48,.84-6.96-.15-.79-.32-1.56-.73-2.28-1.25l-1.2,1.77c.08,.06,.16,.12,.24,.18,.48,.35,1.06,.68,1.73,.98,.69,.31,1.49,.58,2.38,.8,.86,.21,1.85,.32,2.93,.32,1.16,0,2.22-.13,3.16-.4,.88-.25,1.65-.62,2.29-1.11s1.07-1.03,1.41-1.72Z"/>
      <path class="cls-1" d="M162.65,11.05c1.48-.45,3.19-.45,4.67,0,.81,.24,1.52,.63,2.14,1.16,.61,.53,1.1,1.18,1.46,1.94,.37,.77,.55,1.69,.55,2.73v11.9h2.46v-12.03c0-.83-.16-1.74-.49-2.7-.31-.92-.83-1.8-1.54-2.6-.71-.8-1.64-1.47-2.77-2-1.11-.52-2.51-.79-4.15-.79s-3.04,.27-4.15,.79c-1.13,.53-2.06,1.21-2.77,2-.71,.8-1.23,1.67-1.54,2.6-.32,.96-.49,1.87-.49,2.7v12.03h2.46v-11.9c0-1.04,.19-1.95,.55-2.73,.36-.76,.85-1.41,1.46-1.94,.61-.53,1.33-.92,2.14-1.16Z"/>
      <path class="cls-1" d="M180.86,4.53c.45,0,.78-.13,1.08-.43,.29-.29,.42-.64,.42-1.12,0-.43-.14-.76-.44-1.07-.29-.3-.62-.43-1.06-.43s-.77,.13-1.06,.43c-.3,.31-.44,.64-.44,1.07,0,.48,.13,.83,.42,1.12s.63,.43,1.08,.43Z"/>
      <rect class="cls-1" x="179.64" y="9.07" width="2.46" height="19.71"/>
      <rect class="cls-1" x="200.97" y="9.07" width="2.46" height="19.71"/>
      <path class="cls-1" d="M202.15,4.53c.45,0,.78-.13,1.08-.43,.29-.29,.42-.64,.42-1.12,0-.43-.14-.76-.44-1.07-.29-.3-.62-.43-1.06-.43s-.77,.13-1.06,.43c-.3,.31-.44,.64-.44,1.07,0,.48,.13,.83,.42,1.12s.63,.43,1.08,.43Z"/>
      <polygon class="cls-1" points="208.69 27.14 208.69 28.78 223.86 28.78 223.86 26.77 211.84 26.77 223.86 10.71 223.86 9.07 208.69 9.07 208.69 11.07 220.76 11.07 208.69 27.14"/>
      <path class="cls-1" d="M246.79,24.73h-2.91c-1.4,1.63-3.36,2.45-5.86,2.45-1.98,0-3.66-.55-4.98-1.63-1.33-1.08-2.2-2.61-2.57-4.53l-.34-1.77h18.15c0-.1,0-.21,0-.32,0-1.56-.25-2.99-.74-4.25-.48-1.23-1.17-2.3-2.04-3.16-.88-.87-1.95-1.55-3.19-2.03-1.26-.49-2.69-.74-4.25-.74s-3,.25-4.27,.74c-1.25,.48-2.34,1.17-3.21,2.03-.87,.86-1.56,1.92-2.04,3.16-.49,1.26-.74,2.69-.74,4.25s.25,3,.74,4.27c.48,1.25,1.17,2.33,2.05,3.2,.88,.88,1.95,1.56,3.2,2.05,1.27,.49,2.71,.74,4.27,.74,2.43,0,4.51-.58,6.16-1.73,1.07-.74,1.92-1.64,2.57-2.73Zm-15.82-9.58c.6-1.4,1.53-2.49,2.76-3.26,1.21-.75,2.65-1.13,4.29-1.13s3.08,.38,4.3,1.13c1.25,.77,2.18,1.87,2.79,3.27l.9,2.09h-15.94l.9-2.09Z"/>
      <path class="cls-1" d="M126.46,65.56c3.69,0,6.44-1.31,8.23-3.94h9.55c-1.22,3.69-3.36,6.61-6.45,8.75-3.09,2.14-6.84,3.21-11.26,3.21-2.82,0-5.39-.45-7.72-1.35-2.33-.9-4.32-2.17-5.98-3.83-1.65-1.65-2.93-3.64-3.83-5.98-.9-2.33-1.35-4.91-1.35-7.72s.45-5.38,1.35-7.69c.9-2.31,2.17-4.27,3.83-5.9,1.65-1.63,3.64-2.89,5.98-3.79,2.33-.9,4.91-1.35,7.72-1.35s5.38,.45,7.69,1.35c2.31,.9,4.29,2.16,5.94,3.79,1.65,1.63,2.93,3.6,3.83,5.9,.9,2.31,1.35,4.87,1.35,7.69,0,.54-.01,1.03-.04,1.49-.02,.46-.06,.94-.11,1.42h-28.49c.49,2.53,1.58,4.48,3.28,5.87,1.7,1.39,3.86,2.08,6.49,2.08Zm9.18-15.96c-.78-1.8-1.96-3.18-3.54-4.15-1.58-.97-3.46-1.46-5.65-1.46s-4.06,.49-5.61,1.46c-1.56,.97-2.72,2.36-3.5,4.15h18.29Z"/>
      <path class="cls-1" d="M165.45,35.82c3.01,0,5.48,.5,7.4,1.49,1.92,1,3.45,2.26,4.59,3.79,1.14,1.53,1.96,3.2,2.44,4.99,.49,1.8,.78,3.5,.87,5.1l1.46,21.72h-8.75v-21.5c0-1.31-.22-2.43-.66-3.35-.44-.92-1.02-1.7-1.75-2.33-.73-.63-1.58-1.09-2.55-1.39s-1.99-.44-3.06-.44-2.09,.15-3.06,.44c-.97,.29-1.82,.75-2.55,1.39-.73,.63-1.31,1.41-1.75,2.33-.44,.92-.66,2.04-.66,3.35v21.5h-8.75v-21.72c0-1.6,.3-3.3,.91-5.1s1.59-3.46,2.95-4.99c1.36-1.53,3.1-2.79,5.21-3.79,2.11-.99,4.68-1.49,7.69-1.49Zm24.78,0c3.01,0,5.57,.5,7.69,1.49,2.11,1,3.85,2.26,5.21,3.79,1.36,1.53,2.34,3.2,2.95,4.99s.91,3.5,.91,5.1v21.72h-8.74v-21.5c0-1.31-.22-2.43-.66-3.35-.44-.92-1.02-1.7-1.75-2.33-.73-.63-1.58-1.09-2.55-1.39-.97-.29-1.99-.44-3.06-.44s-2.09,.15-3.06,.44c-.97,.29-1.82,.75-2.55,1.39-.73,.63-1.31,1.41-1.75,2.33-.44,.92-.66,2.04-.66,3.35v21.5h-8.75l1.46-21.72c.1-1.6,.39-3.3,.87-5.1,.49-1.8,1.3-3.46,2.44-4.99,1.14-1.53,2.67-2.79,4.59-3.79,1.92-.99,4.38-1.49,7.4-1.49Z"/>
      <path class="cls-1" d="M229.07,35.97c2.82,0,5.39,.45,7.72,1.35,2.33,.9,4.32,2.18,5.98,3.83,1.65,1.65,2.93,3.64,3.83,5.98,.9,2.33,1.35,4.91,1.35,7.72v18.07h-8.75v-3.5c-.87,1.12-2.22,2.09-4.04,2.92-1.82,.83-4.07,1.24-6.74,1.24s-5.05-.45-7.29-1.35-4.15-2.17-5.76-3.83c-1.6-1.65-2.85-3.64-3.75-5.98-.9-2.33-1.35-4.91-1.35-7.72s.45-5.38,1.35-7.69c.9-2.31,2.17-4.27,3.83-5.9,1.65-1.63,3.63-2.89,5.94-3.79,2.31-.9,4.87-1.35,7.69-1.35Zm10.13,18.8c0-3.4-.91-6.05-2.73-7.94s-4.26-2.84-7.32-2.84-5.51,.95-7.36,2.84c-1.85,1.89-2.77,4.54-2.77,7.94s.92,6.05,2.77,7.94c1.85,1.89,4.3,2.84,7.36,2.84s5.5-.95,7.32-2.84,2.73-4.54,2.73-7.94Z"/>
      <path class="cls-1" d="M251.75,24.21c0-1.35,.47-2.51,1.42-3.48,.95-.97,2.12-1.46,3.52-1.46s2.57,.49,3.52,1.46c.95,.97,1.42,2.13,1.42,3.48,0,1.45-.48,2.65-1.42,3.59s-2.12,1.42-3.52,1.42-2.57-.47-3.52-1.42c-.95-.95-1.42-2.14-1.42-3.59Z"/>
      <rect class="cls-1" x="252.31" y="36.48" width="8.75" height="36.44"/>
      <path class="cls-1" d="M265.43,21.91h8.75v51.01h-8.75V21.91Z"/>
      <g>
        <path class="cls-1" d="M149.23,14.42c-.47-1.21-1.14-2.26-1.99-3.11-.85-.85-1.9-1.52-3.11-1.99-1.24-.48-2.63-.72-4.15-.72s-2.91,.24-4.13,.72c-1.21,.47-2.25,1.13-3.1,1.98-.85,.84-1.52,1.87-1.98,3.07-.48,1.22-.72,2.61-.72,4.13s.24,2.92,.72,4.15c.47,1.22,1.13,2.28,1.96,3.13,.83,.85,1.83,1.52,2.99,1.98,1.17,.47,2.48,.71,3.87,.71s2.57-.21,3.48-.62c.28-.13,.54-.26,.77-.4,.5-.29,.88-.61,1.13-.94l2.53-3.24,.06-.08v4.88h2.39v-9.49c0-1.52-.24-2.92-.72-4.15Zm-3.73,9.92h0c-1.24,1.29-2.85,2.01-4.8,2.14-.22,.02-.45,.02-.68,.02-2.25,0-4.1-.73-5.5-2.16-1.39-1.42-2.09-3.38-2.09-5.82s.7-4.4,2.09-5.82c1.4-1.43,3.25-2.16,5.5-2.16s4.1,.73,5.48,2.17c1.37,1.42,2.06,3.38,2.06,5.81,0,.44-.02,.87-.07,1.28-.2,1.85-.87,3.37-1.99,4.54Z"/>
        <path class="cls-1" d="M147.5,23.26c-.77,1.67-2.25,3.41-3.67,4.18-1.22,.67-2.4,.63-3.03-.78-.03-.06-.06-.12-.1-.17,1.95-.13,3.56-.85,4.8-2.14h0c1.12-1.16,1.79-2.69,1.99-4.54,.03,.03,.05,.06,.08,.08,.7,.73,.54,2.03-.07,3.37Z"/>
      </g>
    </g>
  </g>
</svg>